<svg width="326" height="293" viewBox="0 0 326 293" fill="none" xmlns="http://www.w3.org/2000/svg">
<path opacity="0.936" fill-rule="evenodd" clip-rule="evenodd" d="M325.03 228.752C325.03 231.295 325.03 233.839 325.03 236.382C323.814 239.182 321.695 240.984 318.672 241.786C310.862 243.433 303.021 244.916 295.147 246.237C299.53 247.599 303.981 248.87 308.499 250.051C311.793 252.085 313.277 255.051 312.949 258.953C312.75 261.616 312.432 264.265 311.996 266.9C310.782 271.856 307.603 274.399 302.459 274.53C289.457 272.469 276.529 270.138 263.675 267.536C263.935 281.892 257.047 290.263 243.011 292.65C175.602 293.275 108.207 293.063 40.827 292.014C18.7659 287.224 4.99022 273.977 -0.5 252.277C-0.5 247.614 -0.5 242.951 -0.5 238.289C1.58441 227.818 6.56482 218.916 14.4413 211.586C14.6532 163.477 14.8652 115.368 15.0771 67.259C18.2878 56.2749 25.5995 50.341 37.0122 49.4566C37.2204 46.2496 37.0084 43.0706 36.3764 39.9196C32.8708 38.8529 30.8575 36.5216 30.3363 32.9258C29.7326 23.5572 29.9445 14.2321 30.9721 4.95061C32.2314 2.88764 34.0328 1.51005 36.3764 0.817916C50.5759 0.394028 64.7757 0.394028 78.975 0.817916C81.9671 1.52016 83.9806 3.32157 85.0151 6.22221C85.4392 15.5473 85.4392 24.8723 85.0151 34.1974C83.9393 36.9689 82.0319 38.8763 79.2929 39.9196C78.9756 43.0916 78.8694 46.2705 78.975 49.4566C89.9572 50.3728 97.0565 56.095 100.274 66.6232C100.592 74.2496 100.698 81.8792 100.592 89.512C106.456 88.3479 112.178 88.7719 117.759 90.7836C128.694 81.9701 139.926 81.5461 151.456 89.512C159.395 81.8913 167.236 74.1562 174.981 66.3053C178.312 63.9776 181.702 63.7659 185.154 65.6695C190.804 70.9002 194.937 77.1521 197.552 84.4256C209.065 77.9748 221.039 77.0211 233.474 81.5645C234.64 82.3065 235.593 83.2602 236.335 84.4256C239.001 91.235 239.743 98.2288 238.561 105.407C255.443 104.409 265.615 112.144 269.079 128.614C274.312 128.991 279.398 130.051 284.338 131.793C285.504 132.535 286.457 133.488 287.199 134.654C290.857 143.837 290.963 153.056 287.517 162.311C290.702 164.656 292.185 167.835 291.968 171.848C291.527 178.338 290.892 184.802 290.061 191.24C293.179 191.195 295.829 192.255 298.008 194.419C300.728 198.184 302.529 202.316 303.412 206.817C303.371 208.464 303.053 210.054 302.459 211.586C298.723 215.201 294.59 218.274 290.061 220.805C298.131 219.777 306.185 218.399 314.221 216.672C321.196 217.712 324.799 221.739 325.03 228.752ZM40.1912 10.6728C51.8475 10.6728 63.5041 10.6728 75.1602 10.6728C75.1602 17.0308 75.1602 23.3888 75.1602 29.7468C63.5041 29.7468 51.8475 29.7468 40.1912 29.7468C40.1912 23.3888 40.1912 17.0308 40.1912 10.6728ZM47.185 39.9196C54.3907 39.9196 61.5965 39.9196 68.8022 39.9196C68.8022 43.0986 68.8022 46.2776 68.8022 49.4566C61.5965 49.4566 54.3907 49.4566 47.185 49.4566C47.185 46.2776 47.185 43.0986 47.185 39.9196ZM34.469 59.6294C50.6171 59.3293 66.7238 59.6472 82.7898 60.5831C87.7363 62.9527 90.3857 66.8737 90.7373 72.3454C91.0545 75.5174 91.1607 78.6964 91.0552 81.8824C87.2347 81.7769 83.4199 81.883 79.6108 82.2003C76.2296 85.1968 76.2296 88.1641 79.6108 91.1015C83.3665 91.9668 87.1813 92.2847 91.0552 92.0552C91.1569 93.1354 91.0514 94.1953 90.7373 95.2342C85.0176 101.27 82.7923 108.369 84.0614 116.533C75.6815 123.335 72.0785 132.13 73.2528 142.919C71.2812 143.935 69.5855 145.313 68.1664 147.052C53.7565 147.37 39.345 147.476 24.932 147.37C24.932 128.932 24.932 110.493 24.932 92.0552C35.3189 92.1614 45.7036 92.0552 56.0862 91.7373C61.1161 89.477 61.7519 86.298 57.9936 82.2003C46.9751 81.8824 35.9545 81.7762 24.932 81.8824C24.6802 76.953 24.9981 72.0784 25.8857 67.259C27.687 63.4398 30.5481 60.8966 34.469 59.6294ZM180.067 75.5244C184.496 79.9248 187.463 85.2229 188.968 91.4194C186.938 93.9798 185.03 96.6291 183.246 99.3669C179.408 98.7324 175.594 98.9441 171.802 100.003C168.411 102.97 168.411 105.937 171.802 108.904C174.336 109.221 176.879 109.327 179.431 109.222C179.533 110.302 179.428 111.362 179.113 112.401C177.418 113.248 175.723 114.096 174.027 114.944C170.664 109.392 165.896 105.577 159.722 103.5C159.28 101.732 158.644 100.036 157.814 98.4132C165.245 90.7703 172.663 83.1406 180.067 75.5244ZM214.4 88.8762C218.917 88.7179 223.368 89.142 227.752 90.1478C229.768 97.5447 229.237 104.75 226.163 111.765C223.991 114.044 222.19 116.587 220.758 119.395C216.268 120.467 212.029 122.163 208.042 124.481C206.989 123.235 205.93 121.963 204.863 120.666C208.245 116.966 211.741 113.364 215.354 109.858C217.913 105.436 216.746 102.469 211.857 100.956C210.778 101.21 209.719 101.528 208.678 101.91C204.537 106.158 200.298 110.291 195.962 114.308C193.837 113.46 191.717 112.612 189.604 111.765C193.444 99.2321 201.709 91.6025 214.4 88.8762ZM133.018 93.9626C140.302 93.4152 145.495 96.3825 148.595 102.864C149.174 105.913 150.021 108.88 151.138 111.765C154.714 112.899 158.211 114.277 161.629 115.898C166.261 119.047 166.579 122.544 162.583 126.388C161.818 128.47 161.183 130.589 160.675 132.746C151.08 133.482 141.437 133.588 131.746 133.064C133.607 132.106 134.878 130.622 135.561 128.614C136.957 127.741 138.441 127.529 140.012 127.978C141.283 129.461 142.555 130.945 143.827 132.428C150.18 133.28 152.405 130.63 150.502 124.481C144.696 116.83 137.596 115.452 129.203 120.348C125.385 123.39 124.325 127.099 126.024 131.475C127.33 132.552 128.814 133.294 130.475 133.7C128.698 134.84 127.108 136.218 125.706 137.833C114.649 131.36 103.099 130.407 91.0552 134.972C90.0703 135.744 89.329 136.697 88.8299 137.833C88.0987 140.241 87.2512 142.572 86.2867 144.827C82.2684 138.607 82.6925 132.673 87.5583 127.024C89.5661 125.384 91.6859 123.901 93.9163 122.574C94.2984 121.533 94.6163 120.474 94.87 119.395C91.9008 109.748 95.0798 103.072 104.407 99.3669C109.021 98.4075 113.259 99.2556 117.123 101.91C118.819 102.334 120.514 102.334 122.209 101.91C125.053 98.0966 128.656 95.4478 133.018 93.9626ZM239.832 115.58C250.989 114.771 257.241 119.857 258.588 130.839C253.519 132.63 249.069 135.385 245.237 139.104C243.491 136.86 242.22 134.317 241.422 131.475C239.039 127.368 235.754 124.189 231.567 121.938C233.593 118.851 236.348 116.731 239.832 115.58ZM185.154 121.938C192.508 122.626 197.595 126.335 200.413 133.064C190.657 133.594 180.908 133.488 171.166 132.746C173.78 126.367 178.443 122.764 185.154 121.938ZM220.123 130.203C224.435 130.187 228.144 131.671 231.249 134.654C233.209 138.313 234.587 142.128 235.382 146.098C238.249 147.454 241.216 148.62 244.283 149.595C248.344 152.736 250.251 156.869 250.005 161.993C247.664 161.888 245.333 161.994 243.011 162.311C240.239 163.726 239.285 165.952 240.15 168.987C240.855 170.459 242.021 171.413 243.647 171.848C256.361 172.166 269.077 172.272 281.795 172.166C281.491 180.55 280.325 188.816 278.298 196.962C270.298 201.651 262.35 206.419 254.456 211.268C253.734 211.744 253.098 211.638 252.548 210.95C248.74 202.042 241.958 197.168 232.203 196.326C228.057 196.78 224.03 197.734 220.123 199.187C203.118 205.633 186.163 212.203 169.259 218.897C166.282 222.659 166.918 225.627 171.166 227.798C174.416 227.42 177.595 226.784 180.703 225.891C181.735 229.987 182.689 234.12 183.564 238.289C186.557 241.585 189.525 241.585 192.465 238.289C192.811 233.125 192.282 228.039 190.876 223.03C191.087 222.394 191.3 221.758 191.512 221.123C204.815 215.805 218.272 210.931 231.885 206.499C238.863 207.543 242.889 211.57 243.965 218.579C247.285 235.812 250.357 253.085 253.184 270.397C252.807 276.924 249.416 280.95 243.011 282.477C240.902 282.794 238.783 282.9 236.653 282.795C235.693 276.824 234.528 270.89 233.156 264.993C231.462 261.856 229.025 261.114 225.845 262.767C224.405 263.899 223.558 265.383 223.302 267.218C224.296 272.341 225.355 277.427 226.481 282.477C221.186 282.795 215.888 282.901 210.586 282.795C209.845 278.777 209.104 274.75 208.36 270.715C206.745 267.81 204.307 266.856 201.049 267.854C200.064 268.626 199.322 269.579 198.823 270.715C198.629 274.738 199.158 278.659 200.413 282.477C187.908 282.901 175.405 282.901 162.901 282.477C161.771 277.086 160.606 271.682 159.404 266.264C156.743 262.346 153.776 262.134 150.502 265.629C150.078 267.96 150.078 270.291 150.502 272.622C151.157 276.001 151.687 279.392 152.092 282.795C133.017 282.901 113.943 282.795 94.87 282.477C88.7199 280.696 85.3292 276.563 84.6972 270.079C84.9649 266.046 86.6605 262.761 89.7836 260.224C96.3584 257.326 103.034 254.677 109.811 252.277C110.302 252.369 110.726 252.581 111.083 252.913C111.464 255.778 112.206 258.533 113.308 261.178C116.691 263.997 119.552 263.573 121.891 259.906C122.202 256.47 121.884 253.079 120.938 249.734C121.149 249.098 121.362 248.462 121.574 247.826C130.662 244.267 139.775 240.77 148.913 237.335C152.905 232.779 152.058 229.494 146.37 227.481C141.665 229.048 137.003 230.744 132.382 232.567C127.769 219.475 119.292 209.726 106.95 203.32C105.614 199.122 102.858 196.261 98.6848 194.737C89.7156 191.674 80.6026 191.144 71.3454 193.147C72.1103 187.554 69.7788 185.222 64.3516 186.154C63.2971 181.561 62.6613 176.898 62.4442 172.166C114.58 172.272 166.716 172.166 218.851 171.848C223.095 169.707 223.731 166.739 220.758 162.947C219.293 162.378 217.81 161.848 216.308 161.357C220.283 153.362 221.236 145.097 219.169 136.561C217.922 134.886 216.333 133.72 214.4 133.064C216.268 131.919 218.175 130.966 220.123 130.203ZM268.443 139.104C271.853 139.39 275.244 139.814 278.616 140.376C280.727 147.664 279.986 154.657 276.391 161.357C272.523 162.083 268.602 162.19 264.629 161.675C267.106 159.845 268.801 157.514 269.715 154.681C268.744 150.591 266.201 149.107 262.085 150.231C260.95 150.73 259.996 151.471 259.224 152.456C257.872 149.856 256.282 147.419 254.456 145.144C258.553 141.699 263.216 139.686 268.443 139.104ZM101.228 142.283C111.273 141.145 119.645 144.324 126.342 151.82C127.133 155.254 128.298 158.538 129.839 161.675C127.72 162.099 125.6 162.099 123.481 161.675C120.938 159.132 118.395 156.589 115.851 154.046C109.479 151.136 106.618 153.149 107.268 160.086C107.798 160.615 108.328 161.146 108.858 161.675C105.467 162.099 102.076 162.099 98.6848 161.675C95.8688 155.769 95.5509 149.729 97.7311 143.555C98.9696 143.168 100.136 142.744 101.228 142.283ZM135.561 143.555C160.573 143.343 185.581 143.555 210.586 144.191C209.825 150.287 207.918 156.009 204.863 161.357C201.492 162.097 198.101 162.202 194.691 161.675C192.573 158.177 189.605 155.74 185.789 154.364C181.762 155.325 180.279 157.762 181.339 161.675C179.154 162.29 177.458 161.654 176.252 159.768C173.23 158.187 170.687 158.716 168.623 161.357C167.183 162.087 165.699 162.193 164.172 161.675C165.107 156.041 162.776 153.922 157.178 155.317C155.059 157.436 152.939 159.556 150.82 161.675C147.62 162.202 144.441 162.096 141.283 161.357C137.849 155.93 135.942 149.996 135.561 143.555ZM77.0676 152.456C79.1575 152.942 80.8531 154.107 82.154 155.953C83.5337 156.961 85.0176 157.81 86.6046 158.496C87.0287 159.556 87.4521 160.615 87.8762 161.675C82.3657 162.099 76.8559 162.099 71.3454 161.675C72.535 158.125 74.4424 155.052 77.0676 152.456ZM24.932 157.543C37.2241 157.543 49.5163 157.543 61.8084 157.543C61.9238 158.872 61.7119 160.144 61.1726 161.357C56.9631 162.125 54.102 164.456 52.5893 168.351C52.5763 176.222 53.1061 184.064 54.1788 191.876C45.8878 191.347 38.0463 192.937 30.6542 196.644C28.3099 198.685 26.5084 201.123 25.2499 203.956C24.932 188.486 24.8261 173.015 24.932 157.543ZM46.5492 202.049C53.4401 201.837 60.116 202.897 66.5769 205.228C74.298 202.157 82.2455 201.415 90.4194 203.002C92.1214 203.161 93.6047 203.796 94.87 204.91C91.7641 205.998 88.5851 206.846 85.333 207.453C81.6975 211.398 82.1216 214.895 86.6046 217.944C86.1805 218.155 85.7571 218.368 85.333 218.579C82.9824 217.902 80.651 217.16 78.3392 216.354C74.3991 214.098 70.4788 211.872 66.5769 209.678C62.0392 212.083 57.4827 214.52 52.9072 216.99C50.6364 217.931 48.3051 218.354 45.9134 218.261C48.029 216.681 49.5126 214.668 50.364 212.221C50.2579 209.958 49.1982 208.368 47.185 207.453C44.0572 206.885 41.0902 205.931 38.2838 204.592C41.0167 203.435 43.7718 202.588 46.5492 202.049ZM289.425 202.049C291.145 202.805 292.204 204.182 292.604 206.181C283.418 213.216 273.881 219.785 263.993 225.891C259.788 229.16 259.788 232.339 263.993 235.428C264.84 235.534 265.688 235.64 266.536 235.746C282.423 232.907 298.318 230.152 314.221 227.481C314.433 229.176 314.645 230.871 314.857 232.567C298.426 235.093 282.107 238.166 265.9 241.786C264.06 243.636 263.531 245.861 264.311 248.462C265.083 249.447 266.036 250.188 267.172 250.687C278.986 253.622 290.855 256.272 302.777 258.635C302.839 260.652 302.415 262.56 301.505 264.357C288.397 261.799 275.257 259.362 262.085 257.045C259.433 245.906 257.102 234.673 255.092 223.348C266.465 216.101 277.91 209.001 289.425 202.049ZM29.3826 212.857C31.6415 213.139 33.5489 214.093 35.1048 215.718C32.8312 224.368 36.2221 228.713 45.2776 228.752C47.865 228.75 50.4082 228.432 52.9072 227.798C57.5953 226.036 62.1518 224.023 66.5769 221.758C74.3966 226.98 82.9799 229.205 92.3268 228.434C98.5589 225.96 100.255 221.615 97.4132 215.4C99.0574 214.632 100.647 213.784 102.182 212.857C112.778 217.705 119.242 225.652 121.574 236.7C110.977 240.726 100.38 244.753 89.7836 248.78C76.8985 254.737 72.3417 264.592 76.1139 278.345C76.7745 279.773 77.5165 281.15 78.3392 282.477C66.2348 283.063 54.1545 282.85 42.0986 281.841C19.4566 276.377 8.754 262.072 9.9907 238.925C11.8854 229.941 16.442 222.629 23.6604 216.99C25.6105 215.599 27.5179 214.221 29.3826 212.857Z" fill="white"/>
</svg>
