<?xml version="1.0" encoding="UTF-8"?>
<!DOCTYPE svg PUBLIC "-//W3C//DTD SVG 1.1//EN" "http://www.w3.org/Graphics/SVG/1.1/DTD/svg11.dtd">
<svg xmlns="http://www.w3.org/2000/svg" version="1.1" width="512px" height="512px" style="shape-rendering:geometricPrecision; text-rendering:geometricPrecision; image-rendering:optimizeQuality; fill-rule:evenodd; clip-rule:evenodd" xmlns:xlink="http://www.w3.org/1999/xlink">
<g><path style="opacity:0.936" fill="#ffffff" d="M 511.5,384.5 C 511.5,388.5 511.5,392.5 511.5,396.5C 509.588,400.905 506.255,403.739 501.5,405C 489.217,407.59 476.884,409.923 464.5,412C 471.394,414.142 478.394,416.142 485.5,418C 490.682,421.198 493.015,425.864 492.5,432C 492.187,436.189 491.687,440.356 491,444.5C 489.091,452.295 484.091,456.295 476,456.5C 455.551,453.259 435.217,449.592 415,445.5C 415.409,468.079 404.575,481.246 382.5,485C 276.477,485.983 170.477,485.649 64.5,484C 29.8018,476.465 8.13514,455.631 -0.5,421.5C -0.5,414.167 -0.5,406.833 -0.5,399.5C 2.7784,383.03 10.6117,369.03 23,357.5C 23.3333,281.833 23.6667,206.167 24,130.5C 29.0498,113.224 40.5498,103.891 58.5,102.5C 58.8275,97.456 58.4941,92.456 57.5,87.5C 51.9864,85.8223 48.8198,82.1556 48,76.5C 47.0505,61.7649 47.3838,47.0982 49,32.5C 50.9806,29.2553 53.8139,27.0886 57.5,26C 79.8333,25.3333 102.167,25.3333 124.5,26C 129.206,27.1045 132.373,29.9378 134,34.5C 134.667,49.1667 134.667,63.8333 134,78.5C 132.308,82.8591 129.308,85.8591 125,87.5C 124.501,92.4889 124.334,97.4889 124.5,102.5C 141.773,103.941 152.939,112.941 158,129.5C 158.5,141.495 158.667,153.495 158.5,165.5C 167.723,163.669 176.723,164.336 185.5,167.5C 202.699,153.638 220.365,152.971 238.5,165.5C 250.986,153.514 263.319,141.348 275.5,129C 280.739,125.339 286.072,125.006 291.5,128C 300.387,136.227 306.887,146.06 311,157.5C 329.108,147.354 347.942,145.854 367.5,153C 369.333,154.167 370.833,155.667 372,157.5C 376.193,168.21 377.359,179.21 375.5,190.5C 402.052,188.93 418.052,201.096 423.5,227C 431.73,227.594 439.73,229.26 447.5,232C 449.333,233.167 450.833,234.667 452,236.5C 457.752,250.943 457.919,265.443 452.5,280C 457.509,283.688 459.842,288.688 459.5,295C 458.807,305.207 457.807,315.374 456.5,325.5C 461.405,325.429 465.572,327.096 469,330.5C 473.278,336.421 476.111,342.921 477.5,350C 477.435,352.591 476.935,355.091 476,357.5C 470.124,363.186 463.624,368.02 456.5,372C 469.194,370.384 481.861,368.217 494.5,365.5C 505.471,367.135 511.137,373.469 511.5,384.5 Z M 63.5,41.5 C 81.8333,41.5 100.167,41.5 118.5,41.5C 118.5,51.5 118.5,61.5 118.5,71.5C 100.167,71.5 81.8333,71.5 63.5,71.5C 63.5,61.5 63.5,51.5 63.5,41.5 Z M 74.5,87.5 C 85.8333,87.5 97.1667,87.5 108.5,87.5C 108.5,92.5 108.5,97.5 108.5,102.5C 97.1667,102.5 85.8333,102.5 74.5,102.5C 74.5,97.5 74.5,92.5 74.5,87.5 Z M 54.5,118.5 C 79.8981,118.028 105.231,118.528 130.5,120C 138.28,123.727 142.447,129.894 143,138.5C 143.499,143.489 143.666,148.489 143.5,153.5C 137.491,153.334 131.491,153.501 125.5,154C 120.182,158.713 120.182,163.38 125.5,168C 131.407,169.361 137.407,169.861 143.5,169.5C 143.66,171.199 143.494,172.866 143,174.5C 134.004,183.993 130.504,195.159 132.5,208C 119.32,218.698 113.653,232.531 115.5,249.5C 112.399,251.098 109.732,253.265 107.5,256C 84.8358,256.5 62.1691,256.667 39.5,256.5C 39.5,227.5 39.5,198.5 39.5,169.5C 55.8367,169.667 72.1701,169.5 88.5,169C 96.4111,165.445 97.4111,160.445 91.5,154C 74.1699,153.5 56.8365,153.333 39.5,153.5C 39.1039,145.747 39.6039,138.08 41,130.5C 43.8332,124.493 48.3332,120.493 54.5,118.5 Z M 283.5,143.5 C 290.466,150.421 295.133,158.754 297.5,168.5C 294.306,172.527 291.306,176.694 288.5,181C 282.464,180.002 276.464,180.335 270.5,182C 265.167,186.667 265.167,191.333 270.5,196C 274.486,196.499 278.486,196.666 282.5,196.5C 282.66,198.199 282.494,199.866 282,201.5C 279.333,202.833 276.667,204.167 274,205.5C 268.711,196.768 261.211,190.768 251.5,187.5C 250.805,184.72 249.805,182.053 248.5,179.5C 260.188,167.479 271.855,155.479 283.5,143.5 Z M 337.5,164.5 C 344.604,164.251 351.604,164.918 358.5,166.5C 361.67,178.134 360.836,189.467 356,200.5C 352.584,204.084 349.751,208.084 347.5,212.5C 340.438,214.187 333.771,216.854 327.5,220.5C 325.844,218.54 324.177,216.54 322.5,214.5C 327.818,208.681 333.318,203.015 339,197.5C 343.024,190.546 341.19,185.879 333.5,183.5C 331.803,183.899 330.137,184.399 328.5,185C 321.986,191.681 315.319,198.181 308.5,204.5C 305.157,203.166 301.823,201.832 298.5,200.5C 304.539,180.788 317.539,168.788 337.5,164.5 Z M 209.5,172.5 C 220.957,171.639 229.124,176.306 234,186.5C 234.91,191.296 236.243,195.963 238,200.5C 243.624,202.284 249.124,204.451 254.5,207C 261.786,211.953 262.286,217.453 256,223.5C 254.798,226.774 253.798,230.107 253,233.5C 237.908,234.657 222.741,234.824 207.5,234C 210.426,232.493 212.426,230.159 213.5,227C 215.695,225.627 218.029,225.294 220.5,226C 222.5,228.333 224.5,230.667 226.5,233C 236.493,234.339 239.993,230.172 237,220.5C 227.867,208.466 216.7,206.299 203.5,214C 197.494,218.784 195.828,224.617 198.5,231.5C 200.554,233.194 202.888,234.361 205.5,235C 202.705,236.793 200.205,238.96 198,241.5C 180.609,231.32 162.443,229.82 143.5,237C 141.951,238.214 140.785,239.714 140,241.5C 138.85,245.288 137.517,248.954 136,252.5C 129.68,242.718 130.347,233.385 138,224.5C 141.158,221.92 144.492,219.587 148,217.5C 148.601,215.863 149.101,214.197 149.5,212.5C 144.83,197.327 149.83,186.827 164.5,181C 171.757,179.491 178.423,180.825 184.5,185C 187.167,185.667 189.833,185.667 192.5,185C 196.972,179.002 202.639,174.836 209.5,172.5 Z M 377.5,206.5 C 395.048,205.228 404.881,213.228 407,230.5C 399.027,233.317 392.027,237.65 386,243.5C 383.255,239.97 381.255,235.97 380,231.5C 376.252,225.041 371.085,220.041 364.5,216.5C 367.686,211.645 372.019,208.311 377.5,206.5 Z M 291.5,216.5 C 303.068,217.583 311.068,223.416 315.5,234C 300.156,234.833 284.822,234.666 269.5,233.5C 273.611,223.466 280.945,217.8 291.5,216.5 Z M 346.5,229.5 C 353.282,229.475 359.116,231.808 364,236.5C 367.083,242.255 369.25,248.255 370.5,254.5C 375.009,256.632 379.676,258.466 384.5,260C 390.887,264.94 393.887,271.44 393.5,279.5C 389.818,279.335 386.152,279.501 382.5,280C 378.139,282.226 376.639,285.726 378,290.5C 379.109,292.815 380.943,294.315 383.5,295C 403.497,295.5 423.497,295.667 443.5,295.5C 443.021,308.687 441.188,321.687 438,334.5C 425.417,341.874 412.917,349.374 400.5,357C 399.365,357.749 398.365,357.583 397.5,356.5C 391.51,342.49 380.843,334.824 365.5,333.5C 358.979,334.214 352.645,335.714 346.5,338C 319.755,348.137 293.088,358.471 266.5,369C 261.819,374.917 262.819,379.584 269.5,383C 274.611,382.404 279.611,381.404 284.5,380C 286.123,386.442 287.623,392.942 289,399.5C 293.708,404.684 298.375,404.684 303,399.5C 303.544,391.378 302.711,383.378 300.5,375.5C 300.833,374.5 301.167,373.5 301.5,372.5C 322.424,364.137 343.59,356.47 365,349.5C 375.975,351.142 382.308,357.475 384,368.5C 389.221,395.604 394.054,422.771 398.5,450C 397.907,460.265 392.573,466.598 382.5,469C 379.183,469.498 375.85,469.665 372.5,469.5C 370.99,460.108 369.157,450.775 367,441.5C 364.335,436.566 360.502,435.399 355.5,438C 353.236,439.779 351.903,442.113 351.5,445C 353.064,453.057 354.73,461.057 356.5,469C 348.173,469.5 339.84,469.666 331.5,469.5C 330.335,463.18 329.169,456.846 328,450.5C 325.459,445.931 321.625,444.431 316.5,446C 314.951,447.214 313.785,448.714 313,450.5C 312.694,456.828 313.527,462.995 315.5,469C 295.833,469.667 276.167,469.667 256.5,469C 254.724,460.521 252.891,452.021 251,443.5C 246.816,437.337 242.149,437.004 237,442.5C 236.333,446.167 236.333,449.833 237,453.5C 238.03,458.814 238.863,464.147 239.5,469.5C 209.498,469.667 179.498,469.5 149.5,469C 139.827,466.198 134.494,459.698 133.5,449.5C 133.921,443.157 136.588,437.99 141.5,434C 151.841,429.442 162.341,425.275 173,421.5C 173.772,421.645 174.439,421.978 175,422.5C 175.6,427.007 176.767,431.34 178.5,435.5C 183.821,439.934 188.321,439.267 192,433.5C 192.488,428.095 191.988,422.762 190.5,417.5C 190.833,416.5 191.167,415.5 191.5,414.5C 205.794,408.902 220.128,403.402 234.5,398C 240.779,390.833 239.446,385.666 230.5,382.5C 223.101,384.966 215.768,387.633 208.5,390.5C 201.244,369.909 187.911,354.575 168.5,344.5C 166.398,337.897 162.064,333.397 155.5,331C 141.393,326.183 127.06,325.349 112.5,328.5C 113.703,319.702 110.036,316.035 101.5,317.5C 99.8414,310.276 98.8414,302.942 98.5,295.5C 180.501,295.667 262.501,295.5 344.5,295C 351.175,291.632 352.175,286.965 347.5,281C 345.196,280.105 342.862,279.271 340.5,278.5C 346.752,265.925 348.252,252.925 345,239.5C 343.039,236.865 340.539,235.031 337.5,234C 340.437,232.199 343.437,230.699 346.5,229.5 Z M 422.5,243.5 C 427.863,243.949 433.196,244.616 438.5,245.5C 441.82,256.962 440.654,267.962 435,278.5C 428.916,279.642 422.749,279.809 416.5,279C 420.396,276.122 423.063,272.455 424.5,268C 422.973,261.566 418.973,259.233 412.5,261C 410.714,261.785 409.214,262.951 408,264.5C 405.873,260.411 403.373,256.577 400.5,253C 406.944,247.581 414.278,244.414 422.5,243.5 Z M 159.5,248.5 C 175.299,246.709 188.466,251.709 199,263.5C 200.244,268.9 202.077,274.066 204.5,279C 201.167,279.667 197.833,279.667 194.5,279C 190.5,275 186.5,271 182.5,267C 172.478,262.424 167.978,265.59 169,276.5C 169.833,277.333 170.667,278.167 171.5,279C 166.167,279.667 160.833,279.667 155.5,279C 151.071,269.71 150.571,260.21 154,250.5C 155.948,249.891 157.782,249.224 159.5,248.5 Z M 213.5,250.5 C 252.839,250.167 292.172,250.5 331.5,251.5C 330.304,261.088 327.304,270.088 322.5,278.5C 317.198,279.663 311.864,279.829 306.5,279C 303.169,273.498 298.502,269.665 292.5,267.5C 286.166,269.012 283.833,272.845 285.5,279C 282.064,279.967 279.397,278.967 277.5,276C 272.747,273.513 268.747,274.346 265.5,278.5C 263.235,279.647 260.902,279.814 258.5,279C 259.97,270.139 256.304,266.806 247.5,269C 244.167,272.333 240.833,275.667 237.5,279C 232.467,279.829 227.467,279.662 222.5,278.5C 217.099,269.963 214.099,260.63 213.5,250.5 Z M 121.5,264.5 C 124.787,265.264 127.454,267.097 129.5,270C 131.67,271.586 134.004,272.92 136.5,274C 137.167,275.667 137.833,277.333 138.5,279C 129.833,279.667 121.167,279.667 112.5,279C 114.371,273.416 117.371,268.583 121.5,264.5 Z M 39.5,272.5 C 58.8333,272.5 78.1667,272.5 97.5,272.5C 97.6816,274.591 97.3482,276.591 96.5,278.5C 89.8793,279.708 85.3793,283.374 83,289.5C 82.9795,301.88 83.8128,314.214 85.5,326.5C 72.4597,325.669 60.1264,328.169 48.5,334C 44.8128,337.21 41.9794,341.044 40,345.5C 39.5,321.169 39.3334,296.836 39.5,272.5 Z M 73.5,342.5 C 84.3382,342.168 94.8382,343.834 105,347.5C 117.144,342.671 129.644,341.504 142.5,344C 145.177,344.249 147.51,345.249 149.5,347C 144.615,348.711 139.615,350.045 134.5,351C 128.782,357.205 129.449,362.705 136.5,367.5C 135.833,367.833 135.167,368.167 134.5,368.5C 130.803,367.434 127.136,366.268 123.5,365C 117.303,361.451 111.137,357.951 105,354.5C 97.8631,358.283 90.6964,362.116 83.5,366C 79.9284,367.48 76.2618,368.146 72.5,368C 75.8275,365.514 78.1609,362.348 79.5,358.5C 79.3331,354.94 77.6664,352.44 74.5,351C 69.5806,350.107 64.9139,348.607 60.5,346.5C 64.7983,344.681 69.1317,343.348 73.5,342.5 Z M 455.5,342.5 C 458.205,343.69 459.872,345.856 460.5,349C 446.052,360.064 431.052,370.397 415.5,380C 408.887,385.141 408.887,390.141 415.5,395C 416.833,395.167 418.167,395.333 419.5,395.5C 444.488,391.035 469.488,386.702 494.5,382.5C 494.833,385.167 495.167,387.833 495.5,390.5C 469.658,394.473 443.991,399.307 418.5,405C 415.606,407.909 414.773,411.409 416,415.5C 417.214,417.049 418.714,418.215 420.5,419C 439.082,423.616 457.749,427.783 476.5,431.5C 476.599,434.673 475.932,437.673 474.5,440.5C 453.883,436.477 433.217,432.644 412.5,429C 408.329,411.48 404.662,393.813 401.5,376C 419.389,364.602 437.389,353.435 455.5,342.5 Z M 46.5,359.5 C 50.0528,359.943 53.0528,361.443 55.5,364C 51.924,377.605 57.2574,384.438 71.5,384.5C 75.5695,384.496 79.5695,383.996 83.5,383C 90.8735,380.228 98.0402,377.062 105,373.5C 117.299,381.712 130.799,385.212 145.5,384C 155.302,380.109 157.969,373.275 153.5,363.5C 156.086,362.291 158.586,360.957 161,359.5C 177.666,367.124 187.833,379.624 191.5,397C 174.833,403.333 158.167,409.667 141.5,416C 121.234,425.369 114.067,440.869 120,462.5C 121.039,464.746 122.206,466.913 123.5,469C 104.462,469.921 85.4618,469.587 66.5,468C 30.8882,459.406 14.0549,436.906 16,400.5C 18.98,386.37 26.1467,374.87 37.5,366C 40.5672,363.812 43.5672,361.645 46.5,359.5 Z"/></g>
<g><path style="opacity:0.883" fill="#ffffff" d="M 278.5,153.5 C 285.808,153.639 288.974,157.305 288,164.5C 285.203,168.299 282.036,171.799 278.5,175C 269.406,178.235 265.239,175.068 266,165.5C 269.403,160.595 273.57,156.595 278.5,153.5 Z"/></g>
<g><path style="opacity:0.909" fill="#ffffff" d="M 174.5,190.5 C 184.432,188.864 192.598,191.864 199,199.5C 201.234,206.25 198.901,210.25 192,211.5C 188.704,210.87 185.87,209.37 183.5,207C 176.097,205.731 172.263,208.897 172,216.5C 169.565,221.224 165.731,222.724 160.5,221C 156.111,216.562 155.278,211.396 158,205.5C 161.173,197.822 166.673,192.822 174.5,190.5 Z"/></g>
<g><path style="opacity:0.895" fill="#ffffff" d="M 227.5,252.5 C 232.93,252.161 238.264,252.661 243.5,254C 248.843,259.019 248.509,263.686 242.5,268C 236.833,268.667 231.167,268.667 225.5,268C 221.723,265.089 220.556,261.256 222,256.5C 223.5,254.531 225.333,253.198 227.5,252.5 Z"/></g>
<g><path style="opacity:0.887" fill="#ffffff" d="M 304.5,252.5 C 309.93,252.161 315.264,252.661 320.5,254C 324.779,259.033 324.446,263.7 319.5,268C 313.056,268.915 306.723,268.581 300.5,267C 295.866,260.452 297.199,255.618 304.5,252.5 Z"/></g>
</svg>
