<svg width="299" height="299" viewBox="0 0 299 299" fill="none" xmlns="http://www.w3.org/2000/svg">
<path opacity="0.939" fill-rule="evenodd" clip-rule="evenodd" d="M122.345 0C128.963 0 135.582 0 142.2 0C146.65 1.22508 150.252 3.75568 153.004 7.5918C154.966 11.6623 156.425 15.8475 157.384 20.1475C161.472 20.3421 165.56 20.5368 169.647 20.7314C177.586 22.1495 182.647 26.7241 184.831 34.4551C200.794 34.3578 216.757 34.4551 232.718 34.7471C238.401 35.9524 242.001 39.359 243.522 44.9668C243.911 58.9824 243.911 72.998 243.522 87.0137C240.796 89.3496 238.071 89.3496 235.346 87.0137C235.151 86.2352 234.956 85.4562 234.762 84.6777C234.567 72.0245 234.372 59.3719 234.178 46.7188C233.53 45.367 232.459 44.491 230.966 44.0908C228.442 43.7994 225.912 43.7021 223.374 43.7988C223.472 66.3803 223.374 88.9613 223.082 111.541C221.926 114.698 219.687 115.768 216.366 114.753C215.685 114.071 215.004 113.39 214.322 112.709C214.03 89.7397 213.933 66.7699 214.03 43.7988C204.492 43.7988 194.953 43.7988 185.415 43.7988C186.302 49.7128 184.161 54.0927 178.991 56.9385C163.446 57.6096 147.873 57.9016 132.272 57.8145C117.478 57.7171 102.684 57.6198 87.8897 57.5225C81.3753 55.3071 78.4554 50.7325 79.1299 43.7988C69.7861 43.7988 60.4424 43.7988 51.0986 43.7988C50.9046 117.908 51.0993 191.977 51.6826 266.005C72.9035 266.491 94.1214 266.394 115.337 265.713C119.938 255.926 124.708 246.193 129.645 236.514C168.853 187.396 208.272 138.439 247.901 89.6416C255.681 84.5814 263.467 84.5814 271.261 89.6416C279.222 98.27 279.709 107.322 272.721 116.797C234.956 163.905 197.192 211.013 159.428 258.121C156.41 260.749 153.393 263.377 150.376 266.005C171.205 266.394 192.033 266.394 212.862 266.005C213.154 265.713 213.446 265.421 213.738 265.129C213.933 242.548 214.128 219.968 214.322 197.387C217.422 193.476 220.342 193.67 223.082 197.971C223.472 220.746 223.472 243.521 223.082 266.297C222.116 270.767 219.488 273.784 215.198 275.349C189.503 275.543 163.808 275.738 138.112 275.933C135.086 278.128 132.166 280.464 129.353 282.94C123.717 285.547 118.753 284.671 114.461 280.312C113.464 278.906 112.978 277.349 113.001 275.641C91.9764 275.738 70.9529 275.641 49.9307 275.349C45.9966 274.335 43.3687 271.901 42.0469 268.049C41.7549 193.299 41.6575 118.549 41.7549 43.7988C39.0227 43.702 36.2974 43.7993 33.5791 44.0908C32.1192 44.7722 31.0485 45.8428 30.3672 47.3027C29.7861 127.536 29.9808 207.736 30.9512 287.904C32.1439 289.133 33.6039 289.815 35.3311 289.948C100.957 290.528 166.558 290.333 232.134 289.364C232.815 288.683 233.496 288.002 234.178 287.32C234.372 249.167 234.567 211.013 234.762 172.859C235.617 169.266 237.856 168.001 241.478 169.063C242.354 169.55 243.035 170.231 243.522 171.107C243.911 210.429 243.911 249.751 243.522 289.072C241.758 293.852 238.547 297.161 233.886 299C166.144 299 98.4014 299 30.6592 299C25.4907 297.041 22.2788 293.342 21.0235 287.904C20.6341 207.12 20.6341 126.335 21.0235 45.5508C22.7415 39.7445 26.5374 36.1433 32.4111 34.7471C48.1787 34.5524 63.9463 34.3577 79.7139 34.1631C82.1252 26.7229 87.1865 22.2458 94.8975 20.7314C99.209 20.6145 103.491 20.3225 107.745 19.8555C108.371 10.0118 113.238 3.39326 122.345 0ZM127.017 8.75977C130.526 8.66271 134.03 8.76006 137.528 9.05176C140.791 9.36921 143.419 10.8292 145.412 13.4316C146.474 16.468 147.252 19.5826 147.748 22.7754C149.301 26.2745 151.929 28.5132 155.632 29.4912C159.914 29.6859 164.197 29.8806 168.48 30.0752C172.232 30.9085 174.665 33.1471 175.779 36.791C176.169 40.2949 176.169 43.7988 175.779 47.3027C175.487 47.5947 175.195 47.8867 174.903 48.1787C146.483 48.5681 118.062 48.5681 89.6416 48.1787C89.3496 47.8867 89.0576 47.5947 88.7656 47.3027C88.1081 42.8963 88.497 38.6137 89.9336 34.4551C91.5028 32.298 93.5467 30.838 96.0654 30.0752C100.543 29.8806 105.02 29.6859 109.497 29.4912C113.431 28.4774 116.059 26.0441 117.381 22.1914C116.928 14.8753 120.14 10.3981 127.017 8.75977ZM257.245 95.1895C263.722 94.6282 267.42 97.5482 268.341 103.949C268.091 106.355 267.215 108.497 265.713 110.373C261.404 115.265 257.316 120.326 253.449 125.557C248.822 122.026 244.247 118.424 239.726 114.753C243.911 109.4 248.096 104.047 252.281 98.6934C253.637 97.0027 255.292 95.8348 257.245 95.1895ZM233.302 122.053C237.88 125.752 242.552 129.353 247.317 132.856C216.269 171.691 185.221 210.526 154.172 249.361C149.544 245.831 144.97 242.229 140.448 238.558C171.538 199.785 202.489 160.95 233.302 122.053ZM135.192 246.441C139.308 249.475 143.201 252.784 146.872 256.369C139.585 262.196 132.382 268.134 125.265 274.181C123.907 275.4 122.74 275.302 121.761 273.889C126.403 264.798 130.881 255.65 135.192 246.441Z" fill="white"/>
<path opacity="0.912" fill-rule="evenodd" clip-rule="evenodd" d="M101.321 79.7138C106.081 78.9313 108.319 80.8777 108.037 85.5537C102.748 93.9566 97.0056 102.035 90.8095 109.789C88.174 111.397 85.4486 111.592 82.6338 110.373C78.2767 106.99 74.0912 103.389 70.0781 99.5693C68.8593 96.9893 69.3458 94.7508 71.5381 92.8535C73.561 92.3764 75.508 92.5714 77.3779 93.4375C80.2564 95.9976 83.0788 98.6256 85.8457 101.321C90.7231 93.8959 95.882 86.6936 101.321 79.7138Z" fill="white"/>
<path opacity="0.927" fill-rule="evenodd" clip-rule="evenodd" d="M127.017 82.0498C149.014 81.9522 171.011 82.0498 193.007 82.3418C195.491 84.339 195.978 86.7724 194.467 89.6416C193.94 90.3429 193.259 90.83 192.423 91.1015C170.816 91.491 149.208 91.491 127.601 91.1015C125.192 90.528 124.025 88.9711 124.097 86.4296C124.29 84.3974 125.264 82.9374 127.017 82.0498Z" fill="white"/>
<path opacity="0.928" fill-rule="evenodd" clip-rule="evenodd" d="M127.601 101.321C149.209 101.224 170.817 101.321 192.423 101.613C195.091 103.097 195.967 105.336 195.051 108.329C194.369 109.011 193.688 109.691 193.007 110.373C171.01 110.763 149.014 110.763 127.017 110.373C123.95 108.571 123.366 106.137 125.265 103.073C126.083 102.477 126.862 101.893 127.601 101.321Z" fill="white"/>
<path opacity="0.912" fill-rule="evenodd" clip-rule="evenodd" d="M103.073 143.368C106.829 143.91 108.484 146.051 108.037 149.792C102.848 157.932 97.3006 165.815 91.3936 173.443C88.8275 174.83 86.1027 175.219 83.2178 174.611C78.498 171.451 74.1181 167.85 70.0781 163.808C68.6275 157.861 70.8665 155.622 76.794 157.092C79.8114 159.72 82.8283 162.348 85.8457 164.976C90.5176 158.357 95.1895 151.738 99.8613 145.12C100.957 144.472 102.027 143.888 103.073 143.368Z" fill="white"/>
<path opacity="0.927" fill-rule="evenodd" clip-rule="evenodd" d="M127.016 144.536C148.819 144.439 170.621 144.536 192.423 144.828C195.181 146.25 196.057 148.489 195.051 151.544C194.342 152.448 193.466 153.129 192.423 153.588C170.621 153.977 148.818 153.977 127.016 153.588C123.17 150.574 123.17 147.557 127.016 144.536Z" fill="white"/>
<path opacity="0.921" fill-rule="evenodd" clip-rule="evenodd" d="M127.601 163.808C138.698 163.71 149.794 163.808 160.888 164.1C164.045 165.256 165.115 167.495 164.1 170.815C163.418 171.497 162.737 172.178 162.056 172.859C150.182 173.249 138.307 173.249 126.433 172.859C123.145 169.348 123.534 166.331 127.601 163.808Z" fill="white"/>
<path opacity="0.91" fill-rule="evenodd" clip-rule="evenodd" d="M101.321 207.023C106.051 206.208 108.29 208.155 108.037 212.862C102.848 221.002 97.3006 228.886 91.3936 236.514C88.1887 238.216 84.8792 238.411 81.4658 237.098C77.6699 233.691 73.874 230.284 70.0781 226.878C68.6275 220.931 70.8665 218.693 76.794 220.162C79.8114 222.79 82.8283 225.418 85.8457 228.046C90.8808 220.872 96.0392 213.864 101.321 207.023Z" fill="white"/>
</svg>
