<?xml version="1.0" encoding="UTF-8"?>
<!DOCTYPE svg PUBLIC "-//W3C//DTD SVG 1.1//EN" "http://www.w3.org/Graphics/SVG/1.1/DTD/svg11.dtd">
<svg class="w-42" xmlns="http://www.w3.org/2000/svg" version="1.1" width="512px" height="512px" style="shape-rendering:geometricPrecision; text-rendering:geometricPrecision; image-rendering:optimizeQuality; fill-rule:evenodd; clip-rule:evenodd" xmlns:xlink="http://www.w3.org/1999/xlink">
<g><path style="opacity:0.939" fill="#ffffff" d="M 209.5,-0.5 C 220.833,-0.5 232.167,-0.5 243.5,-0.5C 251.12,1.59779 257.287,5.93113 262,12.5C 265.359,19.4702 267.859,26.6369 269.5,34C 276.5,34.3333 283.5,34.6667 290.5,35C 304.093,37.4283 312.76,45.2617 316.5,58.5C 343.835,58.3334 371.169,58.5 398.5,59C 408.231,61.064 414.397,66.8974 417,76.5C 417.667,100.5 417.667,124.5 417,148.5C 412.333,152.5 407.667,152.5 403,148.5C 402.667,147.167 402.333,145.833 402,144.5C 401.667,122.833 401.333,101.167 401,79.5C 399.891,77.1853 398.057,75.6853 395.5,75C 391.179,74.501 386.846,74.3343 382.5,74.5C 382.667,113.168 382.5,151.835 382,190.5C 380.02,195.906 376.186,197.739 370.5,196C 369.333,194.833 368.167,193.667 367,192.5C 366.5,153.168 366.333,113.835 366.5,74.5C 350.167,74.5 333.833,74.5 317.5,74.5C 319.019,84.6269 315.353,92.1269 306.5,97C 279.88,98.1492 253.214,98.6492 226.5,98.5C 201.167,98.3333 175.833,98.1667 150.5,98C 139.345,94.2064 134.345,86.3731 135.5,74.5C 119.5,74.5 103.5,74.5 87.5,74.5C 87.1677,201.403 87.5011,328.237 88.5,455C 124.838,455.833 161.171,455.667 197.5,454.5C 205.379,437.742 213.546,421.075 222,404.5C 289.14,320.392 356.64,236.559 424.5,153C 437.821,144.335 451.154,144.335 464.5,153C 478.133,167.775 478.967,183.275 467,199.5C 402.333,280.167 337.667,360.833 273,441.5C 267.833,446 262.667,450.5 257.5,455C 293.167,455.667 328.833,455.667 364.5,455C 365,454.5 365.5,454 366,453.5C 366.333,414.833 366.667,376.167 367,337.5C 372.308,330.803 377.308,331.136 382,338.5C 382.667,377.5 382.667,416.5 382,455.5C 380.345,463.155 375.845,468.321 368.5,471C 324.5,471.333 280.5,471.667 236.5,472C 231.317,475.76 226.317,479.76 221.5,484C 211.85,488.463 203.35,486.963 196,479.5C 194.293,477.091 193.46,474.425 193.5,471.5C 157.498,471.667 121.498,471.5 85.5,471C 78.7634,469.264 74.2634,465.097 72,458.5C 71.5,330.5 71.3333,202.5 71.5,74.5C 66.8215,74.3342 62.1548,74.5008 57.5,75C 55,76.1667 53.1667,78 52,80.5C 51.005,217.889 51.3384,355.222 53,492.5C 55.0424,494.604 57.5424,495.771 60.5,496C 172.876,496.992 285.21,496.659 397.5,495C 398.667,493.833 399.833,492.667 401,491.5C 401.333,426.167 401.667,360.833 402,295.5C 403.465,289.347 407.298,287.18 413.5,289C 415,289.833 416.167,291 417,292.5C 417.667,359.833 417.667,427.167 417,494.5C 413.981,502.684 408.481,508.351 400.5,511.5C 284.5,511.5 168.5,511.5 52.5,511.5C 43.6496,508.145 38.1496,501.812 36,492.5C 35.3333,354.167 35.3333,215.833 36,77.5C 38.942,67.5574 45.442,61.3908 55.5,59C 82.5,58.6667 109.5,58.3333 136.5,58C 140.629,45.2597 149.296,37.5931 162.5,35C 169.883,34.7998 177.216,34.2998 184.5,33.5C 185.571,16.6439 193.905,5.31054 209.5,-0.5 Z M 217.5,14.5 C 223.509,14.3338 229.509,14.5005 235.5,15C 241.087,15.5436 245.587,18.0436 249,22.5C 250.818,27.6994 252.151,33.0327 253,38.5C 255.659,44.4918 260.159,48.3252 266.5,50C 273.833,50.3333 281.167,50.6667 288.5,51C 294.925,52.4269 299.092,56.2602 301,62.5C 301.667,68.5 301.667,74.5 301,80.5C 300.5,81 300,81.5 299.5,82C 250.833,82.6667 202.167,82.6667 153.5,82C 153,81.5 152.5,81 152,80.5C 150.874,72.9546 151.54,65.6212 154,58.5C 156.687,54.8062 160.187,52.3062 164.5,51C 172.167,50.6667 179.833,50.3333 187.5,50C 194.237,48.2639 198.737,44.0972 201,37.5C 200.225,24.9721 205.725,17.3054 217.5,14.5 Z M 440.5,162.5 C 451.591,161.539 457.924,166.539 459.5,177.5C 459.072,181.62 457.572,185.287 455,188.5C 447.621,196.877 440.621,205.544 434,214.5C 426.076,208.454 418.243,202.287 410.5,196C 417.667,186.833 424.833,177.667 432,168.5C 434.322,165.605 437.155,163.605 440.5,162.5 Z M 399.5,208.5 C 407.339,214.834 415.339,221.001 423.5,227C 370.333,293.5 317.167,360 264,426.5C 256.076,420.454 248.243,414.287 240.5,408C 293.737,341.606 346.737,275.106 399.5,208.5 Z M 231.5,421.5 C 238.547,426.694 245.214,432.361 251.5,438.5C 239.021,448.478 226.688,458.645 214.5,469C 212.176,471.088 210.176,470.921 208.5,468.5C 216.45,452.934 224.117,437.268 231.5,421.5 Z"/></g>
<g><path style="opacity:0.912" fill="#ffffff" d="M 173.5,136.5 C 181.65,135.16 185.483,138.493 185,146.5C 175.943,160.889 166.11,174.723 155.5,188C 150.987,190.754 146.32,191.087 141.5,189C 134.039,183.207 126.872,177.041 120,170.5C 117.913,166.082 118.746,162.249 122.5,159C 125.964,158.183 129.298,158.517 132.5,160C 137.429,164.384 142.262,168.884 147,173.5C 155.352,160.785 164.186,148.452 173.5,136.5 Z"/></g>
<g><path style="opacity:0.927" fill="#ffffff" d="M 217.5,140.5 C 255.168,140.333 292.835,140.5 330.5,141C 334.753,144.42 335.587,148.587 333,153.5C 332.097,154.701 330.931,155.535 329.5,156C 292.5,156.667 255.5,156.667 218.5,156C 214.376,155.018 212.376,152.352 212.5,148C 212.831,144.52 214.498,142.02 217.5,140.5 Z"/></g>
<g><path style="opacity:0.928" fill="#ffffff" d="M 218.5,173.5 C 255.502,173.333 292.502,173.5 329.5,174C 334.069,176.541 335.569,180.375 334,185.5C 332.833,186.667 331.667,187.833 330.5,189C 292.833,189.667 255.167,189.667 217.5,189C 212.248,185.914 211.248,181.747 214.5,176.5C 215.901,175.479 217.235,174.479 218.5,173.5 Z"/></g>
<g><path style="opacity:0.912" fill="#ffffff" d="M 176.5,245.5 C 182.932,246.428 185.765,250.094 185,256.5C 176.115,270.438 166.615,283.938 156.5,297C 152.106,299.374 147.44,300.041 142.5,299C 134.418,293.589 126.918,287.422 120,280.5C 117.516,270.317 121.35,266.484 131.5,269C 136.667,273.5 141.833,278 147,282.5C 155,271.167 163,259.833 171,248.5C 172.876,247.391 174.709,246.391 176.5,245.5 Z"/></g>
<g><path style="opacity:0.927" fill="#ffffff" d="M 217.5,247.5 C 254.835,247.333 292.168,247.5 329.5,248C 334.224,250.435 335.724,254.269 334,259.5C 332.786,261.049 331.286,262.215 329.5,263C 292.167,263.667 254.833,263.667 217.5,263C 210.914,257.84 210.914,252.673 217.5,247.5 Z"/></g>
<g><path style="opacity:0.921" fill="#ffffff" d="M 218.5,280.5 C 237.503,280.333 256.503,280.5 275.5,281C 280.906,282.98 282.739,286.814 281,292.5C 279.833,293.667 278.667,294.833 277.5,296C 257.167,296.667 236.833,296.667 216.5,296C 210.87,289.988 211.537,284.821 218.5,280.5 Z"/></g>
<g><path style="opacity:0.91" fill="#ffffff" d="M 173.5,354.5 C 181.599,353.105 185.433,356.439 185,364.5C 176.115,378.438 166.615,391.938 156.5,405C 151.012,407.915 145.345,408.248 139.5,406C 133,400.167 126.5,394.333 120,388.5C 117.516,378.317 121.35,374.484 131.5,377C 136.667,381.5 141.833,386 147,390.5C 155.622,378.216 164.455,366.216 173.5,354.5 Z"/></g>
</svg>
