<svg width="313" height="324" viewBox="0 0 313 324" fill="none" xmlns="http://www.w3.org/2000/svg">
<path fill-rule="evenodd" clip-rule="evenodd" d="M108.655 15.105C90.5353 23.4115 70.8754 32.4195 64.9669 35.1225C54.2192 40.0404 50.7201 42.3143 49.1482 45.4021C47.1018 49.4237 20.0077 147.64 8.53022 192.645C0.443491 224.352 0 226.707 0 237.921C0 246.132 0.171694 247.788 1.23924 249.879C2.99229 253.312 5.41882 255.124 11.4934 257.535C20.4664 261.097 23.3599 262.815 35.4792 271.777C80.4846 305.061 103.888 314.643 143.827 316.135C164.131 316.893 191.025 314.187 213.636 309.113L220.415 307.591L225.673 310.047C236.618 315.157 251.756 319.683 266.138 322.145C274.873 323.64 295.973 324.492 304.491 323.695C308.707 323.3 309.656 322.982 311.19 321.449C313.231 319.41 313.522 316.827 311.963 314.603C310.346 312.297 308.578 311.998 299.877 312.564C276.492 314.083 247.378 308.389 227.567 298.421C225.079 297.169 222.335 296.144 221.469 296.144C220.603 296.144 216.105 296.983 211.474 298.008C202.311 300.037 186.374 302.57 174.862 303.829C165.235 304.881 136.391 304.9 128.612 303.86C99.5591 299.974 80.1995 290.704 41.3225 262.065C28.5595 252.663 26.2191 251.264 17.8917 248.055C15.0191 246.948 12.2416 245.616 11.7195 245.094C10.2795 243.655 10.4752 233.573 12.0965 225.684C16.9863 201.894 55.8196 57.8113 59.09 51.3253C59.7134 50.0878 68.1036 46.0244 100.724 31.1623C123.192 20.925 141.753 12.5494 141.971 12.5494C142.632 12.5494 168.167 45.9706 168.807 47.6741C169.181 48.6704 169.181 49.8428 168.807 50.8126C168.311 52.0964 148.217 75.165 142.447 81.0743C139.422 84.1724 137.561 83.5919 130.878 77.4629C127.669 74.5187 124.264 71.8144 123.312 71.453C121.2 70.651 117.665 71.917 116.632 73.8465C115.404 76.138 108.279 77.8143 99.7682 77.8143C95.0475 77.8143 94.1878 77.994 92.6704 79.2981C89.8739 81.7017 90.2502 84.8016 93.9179 89.5638L96.8918 93.4253L99.5306 137.654C102.081 180.39 102.134 182.023 101.116 185.998C99.5635 192.063 96.5991 197.95 93.9407 200.246C92.0229 201.903 91.6124 202.68 91.6124 204.655C91.6124 209.281 96.7246 211.527 101.137 208.838C104.932 206.526 108.613 200.075 111.459 190.746C112.765 186.465 112.95 186.222 116.925 183.577C122.599 179.801 131.742 175.589 137.799 173.959C144.296 172.21 155.967 171.611 162.666 172.684C172.151 174.202 182.907 178.418 190.934 183.764C199.021 189.149 207.572 200.577 209.671 208.803C210.694 212.812 211.523 214.242 213.291 215.048C215.667 216.129 217.034 215.9 219.23 214.054C221.137 212.452 221.233 212.165 220.973 208.832C220.502 202.762 216.367 194.263 210.141 186.572L207.091 182.803L209.047 180.335C212.183 176.379 220.403 168.996 225.489 165.566C231.504 161.511 237.858 158.588 244.596 156.778C252.441 154.671 265.229 154.787 273.751 157.044C284.408 159.866 291.125 162.926 301.57 169.715C306.924 173.195 309.002 173.349 311.552 170.454C314.492 167.116 312.987 163.693 306.741 159.51C289.686 148.086 269.065 142.336 251.805 144.193C234.009 146.107 219.216 153.721 205.009 168.277L198.308 175.143L193.55 172.286C184.739 166.994 172.539 162.765 161.987 161.344C147.622 159.41 132.435 162.278 118.634 169.529C114.504 171.699 112.773 172.337 112.773 171.69C112.773 169.576 108.35 94.8901 108.053 91.9782L107.727 88.7966L111.817 88.0218C114.066 87.5951 117.181 86.6278 118.738 85.872L121.57 84.4977L125.101 87.6128C132.553 94.1868 138.462 95.7295 145.159 92.8511C147.889 91.6781 150.346 89.2245 163.182 74.8637C171.897 65.112 178.559 57.0998 179.29 55.4906C180.9 51.9463 180.921 46.6315 179.341 43.1536C178.163 40.5608 149.071 2.21786 147.116 0.680245C144.741 -1.18718 141.739 -0.0610267 108.655 15.105ZM225.855 22.5506C219.082 24.8903 212.626 30.2494 209.726 35.9384C205.316 44.5912 205.629 55.0779 210.543 63.3269C211.432 64.8189 221.573 75.4259 233.079 86.8975C253.223 106.981 254.086 107.753 256.34 107.689C258.538 107.627 259.91 106.398 278.906 87.4647C290.031 76.3773 299.925 66.1666 300.893 64.774C309.668 52.154 306.131 34.1546 293.241 25.8309C282.649 18.9905 268.303 20.1755 259.248 28.6378L256.17 31.5149L254.336 29.6025C247.628 22.6069 234.85 19.4425 225.855 22.5506ZM231.466 32.893C223.453 34.2926 217.98 40.8001 217.964 48.9483C217.95 55.6901 219.026 57.1314 238.641 76.6533L256.302 94.2298L274.42 76.0203C291.051 59.3059 292.629 57.5309 293.651 54.4006C295.107 49.9371 294.636 45.2762 292.292 40.9735C289.364 35.5985 284.361 32.6796 278.077 32.6796C272.891 32.6796 269.205 34.5584 263.493 40.112C259.138 44.3463 258.382 44.8337 256.17 44.8337C253.969 44.8337 253.261 44.3849 249.603 40.6722C247.348 38.3832 244.315 35.8055 242.862 34.9446C239.728 33.0867 235.114 32.2561 231.466 32.893ZM66.5723 238.279C62.7437 241.498 64.7084 246.224 74.1015 256.388C92.2029 275.975 117.754 287.323 146.035 288.337C162.008 288.909 179.103 286.701 181.922 283.703C183.859 281.644 183.826 278.326 181.847 276.221C180.027 274.285 177.907 274.183 170.744 275.684C163.179 277.269 138.575 277.273 131.146 275.69C123.58 274.078 113.824 270.732 107.609 267.616C96.0302 261.812 83.8646 251.764 77.0025 242.337C72.5828 236.265 70.1113 235.303 66.5723 238.279ZM271.29 243.621C265.123 249.361 273.811 259.961 288.902 265.11C293.642 266.728 305.621 269.543 307.799 269.552C309.949 269.56 312.977 266.281 312.977 263.944C312.977 260.417 310.809 258.836 304.095 257.468C294.294 255.473 286.47 252.539 282.79 249.482C282.043 248.86 280.843 247.175 280.125 245.738C279.406 244.302 278.356 242.949 277.79 242.732C275.713 241.935 272.65 242.354 271.29 243.621Z" fill="white"/>
</svg>
