<svg xmlns="http://www.w3.org/2000/svg" width="400" height="400" viewBox="0 0 512 512" version="1.1"><path d="" stroke="none" fill="#ffffff" fill-rule="evenodd"/><path d="M 180.500 24.037 C 151.900 37.159, 120.869 51.389, 111.543 55.659 C 94.579 63.428, 89.056 67.020, 86.575 71.898 C 83.345 78.251, 40.580 233.405, 22.464 304.500 C 9.700 354.589, 9 358.308, 9 376.023 C 9 388.994, 9.271 391.611, 10.956 394.914 C 13.723 400.337, 17.553 403.199, 27.141 407.008 C 41.304 412.635, 45.871 415.349, 65 429.507 C 136.036 482.086, 172.976 497.222, 236.015 499.579 C 268.062 500.777, 310.512 496.503, 346.200 488.487 L 356.901 486.083 365.200 489.962 C 382.476 498.035, 406.369 505.184, 429.069 509.073 C 442.857 511.435, 476.160 512.782, 489.605 511.522 C 496.260 510.899, 497.758 510.396, 500.179 507.975 C 503.400 504.754, 503.860 500.673, 501.399 497.159 C 498.847 493.516, 496.057 493.044, 482.322 493.938 C 445.412 496.338, 399.459 487.343, 368.190 471.596 C 364.263 469.618, 359.931 468, 358.564 468 C 357.197 468, 350.098 469.325, 342.789 470.944 C 328.326 474.149, 303.171 478.151, 285 480.139 C 269.805 481.801, 224.278 481.832, 212 480.189 C 166.143 474.050, 135.586 459.406, 74.223 414.165 C 54.078 399.312, 50.384 397.101, 37.240 392.032 C 32.706 390.284, 28.322 388.179, 27.498 387.355 C 25.225 385.082, 25.534 369.155, 28.093 356.692 C 35.811 319.111, 97.105 91.501, 102.267 81.255 C 103.251 79.300, 116.494 72.881, 167.981 49.403 C 203.445 33.231, 232.742 20, 233.085 20 C 234.129 20, 274.433 72.796, 275.443 75.487 C 276.034 77.061, 276.034 78.913, 275.443 80.445 C 274.661 82.473, 242.944 118.915, 233.837 128.250 C 229.062 133.144, 226.125 132.227, 215.577 122.545 C 210.511 117.894, 205.137 113.622, 203.635 113.051 C 200.301 111.784, 194.721 113.784, 193.090 116.832 C 191.153 120.452, 179.907 123.100, 166.473 123.100 C 159.022 123.100, 157.665 123.384, 155.270 125.444 C 150.856 129.241, 151.450 134.138, 157.239 141.661 L 161.933 147.761 166.098 217.630 C 170.123 285.140, 170.207 287.720, 168.601 294 C 166.150 303.581, 161.471 312.881, 157.275 316.508 C 154.248 319.125, 153.600 320.352, 153.600 323.472 C 153.600 330.781, 161.669 334.329, 168.634 330.081 C 174.624 326.429, 180.433 316.238, 184.926 301.500 C 186.987 294.737, 187.279 294.354, 193.553 290.176 C 202.509 284.211, 216.940 277.556, 226.500 274.981 C 236.756 272.218, 255.177 271.273, 265.750 272.967 C 280.721 275.366, 297.698 282.026, 310.368 290.470 C 323.132 298.978, 336.630 317.031, 339.943 330.025 C 341.557 336.359, 342.866 338.618, 345.657 339.890 C 349.407 341.598, 351.564 341.237, 355.031 338.321 C 358.040 335.789, 358.191 335.336, 357.782 330.071 C 357.038 320.482, 350.511 307.057, 340.685 294.906 L 335.870 288.952 338.957 285.054 C 343.907 278.804, 356.881 267.142, 364.910 261.723 C 374.403 255.317, 384.433 250.700, 395.067 247.841 C 407.450 244.512, 427.635 244.696, 441.085 248.261 C 457.906 252.719, 468.509 257.552, 484.995 268.277 C 493.446 273.774, 496.726 274.018, 500.750 269.445 C 505.391 264.172, 503.016 258.765, 493.157 252.156 C 466.237 234.109, 433.690 225.026, 406.446 227.960 C 378.357 230.984, 355.008 243.011, 332.584 266.006 L 322.007 276.852 314.498 272.339 C 300.590 263.979, 281.334 257.299, 264.678 255.054 C 242.005 251.999, 218.034 256.529, 196.250 267.984 C 189.732 271.412, 187 272.420, 187 271.397 C 187 268.057, 180.018 150.075, 179.549 145.475 L 179.035 140.449 185.491 139.225 C 189.041 138.551, 193.957 137.023, 196.415 135.829 L 200.884 133.658 206.458 138.579 C 218.220 148.964, 227.547 151.401, 238.118 146.854 C 242.426 145.001, 246.305 141.125, 266.564 118.439 C 280.320 103.034, 290.836 90.377, 291.989 87.835 C 294.530 82.236, 294.564 73.840, 292.070 68.346 C 290.210 64.250, 244.292 3.679, 241.206 1.250 C 237.457 -1.700, 232.719 0.079, 180.500 24.037 M 365.487 35.799 C 354.796 39.495, 344.607 47.961, 340.030 56.948 C 333.068 70.617, 333.562 87.183, 341.319 100.214 C 342.722 102.571, 358.729 119.327, 376.890 137.449 C 408.685 169.176, 410.047 170.395, 413.605 170.294 C 417.074 170.196, 419.239 168.255, 449.223 138.345 C 466.782 120.830, 482.398 104.700, 483.927 102.500 C 497.776 82.564, 492.194 54.130, 471.849 40.981 C 455.130 30.175, 432.486 32.047, 418.194 45.415 L 413.336 49.960 410.441 46.939 C 399.854 35.888, 379.684 30.889, 365.487 35.799 M 374.344 52.137 C 361.696 54.348, 353.058 64.628, 353.032 77.500 C 353.010 88.150, 354.708 90.427, 385.669 121.266 L 413.545 149.032 442.142 120.266 C 468.391 93.862, 470.883 91.058, 472.495 86.113 C 474.794 79.062, 474.050 71.699, 470.350 64.902 C 465.729 56.411, 457.832 51.800, 447.913 51.800 C 439.728 51.800, 433.910 54.768, 424.894 63.541 C 418.021 70.230, 416.828 71, 413.336 71 C 409.862 71, 408.745 70.291, 402.971 64.426 C 399.412 60.810, 394.624 56.738, 392.331 55.378 C 387.384 52.443, 380.102 51.131, 374.344 52.137 M 114.077 376.589 C 108.034 381.674, 111.135 389.140, 125.961 405.196 C 154.532 436.138, 194.861 454.065, 239.500 455.666 C 264.712 456.570, 291.694 453.083, 296.144 448.347 C 299.201 445.093, 299.149 439.852, 296.026 436.527 C 293.153 433.469, 289.806 433.307, 278.500 435.678 C 266.560 438.182, 227.726 438.188, 216 435.688 C 204.058 433.141, 188.659 427.855, 178.849 422.933 C 160.573 413.765, 141.371 397.892, 130.540 383 C 123.564 373.407, 119.663 371.888, 114.077 376.589 M 437.201 385.028 C 427.468 394.095, 441.181 410.840, 465 418.975 C 472.482 421.530, 491.389 425.978, 494.827 425.991 C 498.220 426.004, 503 420.824, 503 417.133 C 503 411.561, 499.577 409.063, 488.981 406.903 C 473.510 403.750, 461.161 399.116, 455.353 394.286 C 454.173 393.304, 452.279 390.643, 451.146 388.373 C 450.012 386.104, 448.354 383.966, 447.461 383.623 C 444.182 382.365, 439.348 383.027, 437.201 385.028" stroke="none" fill="#ffffff" fill-rule="evenodd"/></svg>