<svg width="297" height="293" viewBox="0 0 297 293" fill="none" xmlns="http://www.w3.org/2000/svg">
<path opacity="0.942" fill-rule="evenodd" clip-rule="evenodd" d="M296.71 259.905C296.71 263.773 296.71 267.639 296.71 271.507C293.528 282.132 286.567 288.997 275.827 292.1C186.882 292.486 97.9363 292.486 8.99121 292.1C5.62259 291.051 3.39896 288.828 2.32031 285.429C1.93359 261.259 1.93359 237.089 2.32031 212.919C3.3311 209.781 5.36138 207.557 8.41113 206.248C14.5613 205.434 20.7488 205.144 26.9736 205.378C26.877 193.968 26.9736 182.56 27.2637 171.153C29.0116 168.233 31.4286 167.556 34.5146 169.123C35.2116 169.647 35.695 170.323 35.9648 171.153C36.2549 182.56 36.3515 193.968 36.2549 205.378C41.2822 205.378 46.3096 205.378 51.3369 205.378C51.5303 177.725 51.3369 150.074 50.7568 122.427C46.0667 119.646 41.3295 116.939 36.5449 114.306C36.3516 127.261 36.1582 140.216 35.9648 153.171C34.4906 155.821 32.267 156.691 29.2939 155.781C28.3955 155.077 27.7187 154.207 27.2637 153.171C27.1669 138.279 26.8769 123.39 26.3936 108.505C19.3383 104.688 12.3774 100.724 5.51074 96.6133C2.7624 94.286 0.82881 91.4825 -0.290039 88.2021C-0.290039 85.3017 -0.290039 82.4013 -0.290039 79.5009C4.53908 69.6448 12.2735 66.2612 22.9131 69.3496C44.1826 81.338 65.452 93.3259 86.7217 105.314C95.1879 113.791 95.1879 122.299 86.7217 130.838C82.28 133.737 77.4462 134.704 72.2197 133.738C68.0652 132.096 64.1015 130.066 60.3281 127.647C60.0381 153.75 59.9412 179.854 60.0381 205.958C75.5906 208.265 84.7749 217.16 87.5918 232.642C87.8807 234.566 87.9775 236.499 87.8818 238.442C93.8758 238.442 99.8703 238.442 105.864 238.442C107.893 226.84 114.564 219.299 125.877 215.819C125.905 201.294 126.292 186.792 127.037 172.313C127.892 169.831 129.052 167.511 130.518 165.352C137.479 158.392 144.439 151.431 151.4 144.47C151.69 138.866 151.787 133.258 151.69 127.647C145.114 127.744 138.539 127.647 131.968 127.357C129.417 126.419 127.193 124.969 125.297 123.007C118.69 113.885 112.309 104.604 106.154 95.1631C103.427 85.3406 106.618 78.2834 115.726 73.9902C122.99 72.0377 129.081 73.8742 133.998 79.5009C137.504 84.6758 141.081 89.7997 144.729 94.873C147.841 95.3539 150.935 95.2576 154.011 94.583C157.564 89.121 161.044 83.6102 164.452 78.0508C150.259 68.5061 144.748 55.2611 147.92 38.3154C149.062 34.4034 150.705 30.7295 152.851 27.2939C145.842 18.9701 145.261 10.1723 151.11 0.900357C152.968 0.0399501 154.902 -0.153413 156.911 0.320279C161.657 2.76381 166.684 4.31069 171.993 4.9609C179.356 5.09954 186.703 5.48622 194.036 6.12106C208.948 10.0123 217.553 19.5836 219.85 34.8349C220.589 44.1628 219.428 53.2507 216.369 62.0986C213.798 68.1465 209.931 73.174 204.768 77.1806C204.381 77.7607 204.381 78.3408 204.768 78.9209C206.991 81.9181 209.215 84.9148 211.438 87.9121C222.443 91.3224 233.271 95.1892 243.923 99.5136C247.895 102.514 250.118 106.477 250.594 111.405C251.13 123.029 250.937 134.63 250.014 146.21C246.367 155.333 239.696 158.911 230.001 156.941C224.238 155.24 220.662 151.469 219.27 145.63C219.173 138.468 218.883 131.314 218.399 124.167C217.495 123.834 216.625 123.448 215.789 123.007C213.851 130.763 212.208 138.594 210.858 146.5C212.86 157.545 214.987 168.566 217.239 179.564C217.387 180.334 217.774 180.914 218.399 181.305C233.899 186.019 249.077 191.53 263.936 197.837C265.864 200.635 266.444 203.729 265.676 207.118C261.905 217.366 258.135 227.614 254.364 237.862C260.543 238.345 266.73 238.635 272.927 238.732C285.437 240.721 293.365 247.779 296.71 259.905ZM156.911 10.4716C161.332 12.4474 165.973 13.7043 170.833 14.2422C178.202 14.33 185.549 14.7168 192.876 15.4023C206.347 20.1885 212.244 29.7598 210.568 44.1162C207.605 41.7351 204.801 39.1247 202.157 36.2851C199.545 34.1072 196.645 32.3669 193.456 31.0644C186.47 29.8727 179.509 28.5192 172.573 27.0039C166.546 25.6875 161.615 22.6904 157.781 18.0127C156.348 15.6093 156.058 13.0957 156.911 10.4716ZM160.392 32.5146C169.088 36.2464 178.175 38.47 187.655 39.1855C193.393 40.9451 197.938 44.3289 201.287 49.3369C203.26 52.2821 205 55.3759 206.508 58.6181C206.774 60.6078 206.194 62.348 204.768 63.8388C196.304 74.1207 185.767 76.9248 173.153 72.25C156.51 63.0215 152.256 49.7766 160.392 32.5146ZM14.792 77.1806C17.2939 77.2085 19.6142 77.8854 21.7529 79.2109C41.4756 90.4256 61.1982 101.641 80.9209 112.855C85.0104 117.618 84.2372 121.486 78.6006 124.457C77.0535 124.844 75.507 124.844 73.96 124.457C53.5634 113.196 33.2606 101.788 13.0518 90.2324C8.13101 86.8297 7.74427 82.9629 11.8916 78.6308C12.9442 78.1917 13.911 77.7085 14.792 77.1806ZM195.196 81.8213C196.467 83.6705 197.821 85.5077 199.257 87.332C188.971 93.2447 186.554 101.463 192.006 111.985C195.797 116.249 200.534 118.764 206.218 119.526C205.088 127.106 203.735 134.647 202.157 142.149C188.429 142.149 174.7 142.149 160.972 142.149C160.875 128.42 160.972 114.691 161.262 100.964C165.003 94.4333 169.16 88.2456 173.733 82.4013C179.09 83.5499 184.504 83.8399 189.976 83.2715C191.856 83.0359 193.596 82.5527 195.196 81.8213ZM119.786 82.4013C122.456 82.334 124.679 83.301 126.457 85.3017C130.646 91.8421 135.19 98.1267 140.089 104.154C143.951 104.444 147.818 104.541 151.69 104.444C151.69 109.085 151.69 113.726 151.69 118.366C145.693 118.462 139.699 118.366 133.708 118.076C127.067 109.338 120.783 100.347 114.855 91.1025C114.121 86.7641 115.764 83.8637 119.786 82.4013ZM203.897 95.7431C215.012 98.9771 226.033 102.554 236.962 106.475C239.276 107.629 240.727 109.466 241.312 111.985C241.699 122.04 241.699 132.095 241.312 142.149C239.311 148.232 235.541 149.682 230.001 146.5C229.444 145.677 228.961 144.807 228.551 143.89C228.358 136.155 228.164 128.421 227.971 120.686C227.697 119.674 227.311 118.707 226.811 117.786C219.04 114.227 211.016 111.231 202.737 108.795C199.02 106.867 197.763 103.871 198.967 99.8037C200.041 97.6823 201.684 96.329 203.897 95.7431ZM157.491 151.431C171.608 151.334 185.723 151.431 199.837 151.721C197.463 156.999 193.983 161.446 189.396 165.062C177.504 172.459 165.515 179.71 153.431 186.815C152.833 187.511 152.349 188.285 151.98 189.136C151.69 197.835 151.594 206.536 151.69 215.239C146.277 215.239 140.862 215.239 135.448 215.239C135.181 201.48 135.471 187.752 136.318 174.054C136.898 173.087 137.479 172.12 138.059 171.153C144.654 164.655 151.131 158.081 157.491 151.431ZM203.897 163.032C205.736 170.951 207.766 178.879 209.988 186.815C210.892 187.894 211.955 188.764 213.179 189.426C220.869 191.925 228.507 194.535 236.092 197.257C234.649 202.741 232.523 207.962 229.711 212.919C217.046 208.568 204.381 204.218 191.716 199.867C190.484 199.216 189.42 198.346 188.525 197.257C186.188 192.098 183.77 186.974 181.274 181.885C185.905 178.806 190.545 175.713 195.196 172.603C198.431 169.662 201.331 166.471 203.897 163.032ZM171.993 186.235C172.501 186.159 172.888 186.352 173.153 186.815C175.606 192.3 178.216 197.714 180.984 203.058C182.241 204.315 183.498 205.571 184.755 206.828C198.738 212.198 212.853 217.225 227.101 221.91C227.344 227.481 228.117 232.991 229.421 238.442C221.257 238.183 213.136 238.473 205.058 239.312C203.084 241.47 202.794 243.887 204.188 246.563C204.623 246.927 205.106 247.217 205.638 247.434C227.681 247.627 249.724 247.82 271.767 248.014C283.442 250.605 288.567 257.856 287.139 269.767C285.108 276.437 280.758 280.788 274.087 282.818C212.034 283.68 149.965 283.97 87.8818 283.688C87.8818 279.241 87.8818 274.794 87.8818 270.347C149.177 270.444 210.472 270.347 271.767 270.057C276.166 267.371 276.36 264.47 272.347 261.355C210.859 261.065 149.371 260.969 87.8818 261.065C87.8818 256.618 87.8818 252.171 87.8818 247.724C121.527 247.82 155.171 247.724 188.815 247.434C191.736 245.686 192.413 243.269 190.846 240.183C190.166 239.375 189.296 238.891 188.235 238.732C179.15 238.442 170.062 238.345 160.972 238.442C160.875 223.166 160.972 207.89 161.262 192.616C164.924 190.547 168.501 188.42 171.993 186.235ZM245.083 200.157C248.985 201.588 252.853 203.134 256.685 204.798C252.598 215.994 248.345 227.112 243.923 238.152C242.271 238.7 240.821 238.41 239.572 237.282C237.129 232.131 236.356 226.717 237.252 221.04C240.039 214.126 242.65 207.165 245.083 200.157ZM11.8916 214.659C27.3615 214.562 42.8303 214.659 58.2979 214.949C68.9075 216.725 75.5784 222.816 78.3105 233.222C78.6006 250.043 78.6975 266.865 78.6006 283.688C56.3393 283.878 34.103 283.685 11.8916 283.108C11.1221 260.253 11.1221 237.436 11.8916 214.659ZM129.067 224.52C136.608 224.52 144.149 224.52 151.69 224.52C151.69 229.161 151.69 233.802 151.69 238.442C139.507 238.539 127.325 238.442 115.146 238.152C117.419 231.141 122.059 226.597 129.067 224.52Z" fill="white"/>
</svg>
