<svg width="311" height="311" viewBox="0 0 311 311" fill="none" xmlns="http://www.w3.org/2000/svg">
<g clip-path="url(#clip0_921177_142)">
<path d="M39.6336 14.3424C40.6753 14.34 41.7177 14.3363 42.76 14.3327C45.6046 14.3242 48.4485 14.3266 51.2931 14.3309C54.3684 14.3339 57.4438 14.326 60.5192 14.3199C66.5363 14.3096 72.5535 14.309 78.5712 14.312C83.464 14.3145 88.3567 14.3139 93.2501 14.3108L95.364 14.309L99.6147 14.3066C112.892 14.2981 126.169 14.3011 139.446 14.3084C151.581 14.3145 163.715 14.3066 175.849 14.292C188.322 14.2774 200.796 14.2713 213.269 14.2756C220.267 14.2774 227.264 14.2756 234.261 14.2653C240.217 14.2559 246.174 14.2563 252.131 14.2665C255.168 14.272 258.203 14.2732 261.239 14.2641C264.025 14.2556 266.809 14.258 269.595 14.2701C270.597 14.2726 271.598 14.2701 272.6 14.2641C283.827 14.1978 293.373 16.3086 301.829 24.1833C306.878 29.4484 311.066 36.7557 311.081 44.2093L311.09 45.9855V47.9316L311.096 50.0029C311.103 52.302 311.105 54.6011 311.107 56.9008L311.12 61.8361C311.132 66.7805 311.138 71.7244 311.143 76.6682L311.152 83.659C311.167 93.9244 311.176 104.19 311.18 114.455C311.185 122.543 311.2 130.631 311.22 138.719C311.24 147.029 311.251 155.34 311.253 163.65C311.254 168.313 311.259 172.976 311.275 177.639C311.288 181.613 311.293 185.586 311.287 189.559C311.285 191.584 311.287 193.608 311.298 195.634C311.387 213.911 311.387 213.911 306.444 221.102L305.4 222.658C300.109 229.899 293.108 234.458 284.273 236.287C283.101 236.341 281.926 236.361 280.753 236.36L278.575 236.362L276.191 236.356H273.676C271.403 236.356 269.129 236.353 266.855 236.348C264.478 236.345 262.101 236.345 259.724 236.344C255.224 236.342 250.724 236.338 246.223 236.331C241.1 236.324 235.976 236.32 230.852 236.317C220.313 236.311 209.774 236.3 199.234 236.287L199.581 237.977C200.656 243.232 201.728 248.487 202.798 253.743C203.348 256.445 203.9 259.147 204.453 261.849C204.986 264.455 205.518 267.063 206.048 269.67L206.658 272.655C206.944 274.047 207.227 275.441 207.509 276.834L207.767 278.081C208.155 280.009 208.346 281.685 208.346 283.666L209.543 283.654C213.662 283.613 217.781 283.586 221.9 283.566C223.436 283.557 224.973 283.545 226.51 283.529C228.72 283.506 230.93 283.496 233.141 283.488C233.826 283.479 234.512 283.47 235.218 283.459C238.649 283.459 241.25 283.481 244.184 285.488C245.781 287.521 245.577 289.669 245.398 292.17C244.883 294.025 244.349 294.489 242.738 295.563C239.68 296.757 236.924 296.674 233.668 296.653L231.562 296.662C229.231 296.669 226.901 296.664 224.57 296.658C222.9 296.659 221.23 296.664 219.559 296.667C215.493 296.675 211.426 296.673 207.36 296.668C204.055 296.664 200.75 296.664 197.444 296.665L196.019 296.667L193.152 296.668C184.19 296.673 175.228 296.667 166.267 296.658C158.578 296.65 150.89 296.651 143.201 296.659C133.319 296.671 123.437 296.673 113.556 296.665L112.135 296.665C108.835 296.663 105.533 296.666 102.233 296.67C98.2097 296.675 94.1868 296.674 90.1632 296.664C88.1107 296.659 86.0589 296.658 84.0064 296.664C81.7814 296.668 79.5564 296.662 77.3314 296.653L75.3658 296.665C72.0639 296.639 69.6554 296.492 66.8163 294.6C65.2188 292.567 65.4229 290.419 65.6015 287.918C66.1117 286.082 66.6499 285.602 68.2286 284.522C71.4492 283.287 74.4401 283.441 77.8593 283.488L80.0089 283.496C82.2679 283.506 84.5263 283.529 86.7853 283.552C88.3197 283.562 89.854 283.57 91.3884 283.577C95.1441 283.597 98.8992 283.628 102.654 283.666L102.838 281.539C103.33 277.142 104.289 272.827 105.181 268.497L105.751 265.701C106.247 263.266 106.746 260.83 107.245 258.395C107.756 255.903 108.264 253.411 108.772 250.919C109.767 246.041 110.766 241.163 111.766 236.287L110.46 236.294C99.9433 236.348 89.4276 236.388 78.9113 236.413C73.826 236.425 68.7407 236.443 63.6547 236.471C59.2193 236.495 54.7833 236.51 50.3479 236.515C48.0021 236.519 45.6562 236.526 43.3103 236.544C41.0963 236.56 38.8822 236.565 36.6682 236.562C35.4807 236.563 34.2932 236.576 33.1056 236.59C26.7326 236.56 20.529 235.405 15.1855 231.731L13.6293 230.687C6.35357 225.372 1.89024 218.406 -5.86053e-05 209.561C-0.0547266 208.593 -0.0790235 207.623 -0.0814531 206.654L-0.089957 204.877V202.93L-0.0960313 200.857C-0.102713 198.556 -0.105143 196.256 -0.107572 193.955L-0.119721 189.017C-0.131869 184.069 -0.137943 179.123 -0.14341 174.176L-0.152521 167.183C-0.166137 157.419 -0.175045 147.655 -0.179248 137.891L-0.180463 136.376C-0.185322 128.284 -0.200508 120.192 -0.220553 112.099C-0.240598 103.785 -0.250924 95.4715 -0.253354 87.1583C-0.254568 82.4927 -0.259428 77.8271 -0.275221 73.1615C-0.288584 69.1865 -0.293443 65.2122 -0.287369 61.2372C-0.284939 59.2115 -0.287369 57.1857 -0.297695 55.16C-0.308629 52.9574 -0.30377 50.7549 -0.29648 48.5524L-0.315918 46.6378C-0.237561 37.5083 3.87104 29.4271 10.3261 23.082C18.8367 15.5664 28.6873 14.2987 39.6336 14.3424ZM16.4003 35.2304C13.1919 40.3103 12.0712 44.6594 12.0755 50.6377L12.0737 51.9625C12.0731 53.4203 12.0761 54.8781 12.0797 56.3359L12.0791 59.4793C12.0791 62.319 12.0828 65.1587 12.087 67.9984C12.0907 70.9681 12.0907 73.9372 12.0919 76.9069C12.0937 82.528 12.098 88.149 12.1046 93.7701C12.1113 100.171 12.115 106.571 12.118 112.971C12.1241 126.135 12.135 139.299 12.1484 152.463L13.5849 152.474C18.0537 152.509 22.5225 152.553 26.9907 152.606C29.288 152.633 31.5853 152.657 33.8831 152.673C36.1002 152.689 38.3173 152.714 40.535 152.744C41.3806 152.754 42.2261 152.761 43.0722 152.765C44.2567 152.771 45.4424 152.789 46.6275 152.808L48.6708 152.828C50.6109 153.098 51.4528 153.539 52.8456 154.893C53.2587 156.181 53.2587 156.181 53.3771 157.588L53.5241 158.991C53.4415 160.582 53.1044 161.456 52.2382 162.789C50.1098 164.208 49.2157 164.168 46.6961 164.198L44.3751 164.234L41.8665 164.255C41.0119 164.267 40.156 164.278 39.3007 164.291C37.0508 164.322 34.8016 164.346 32.5517 164.369C30.255 164.393 27.959 164.424 25.6623 164.455C21.1577 164.514 16.653 164.564 12.1484 164.611V176.152H298.851C311.91 98.2638 311.91 98.2638 292.664 32.9526C288.359 28.8944 283.41 27.2611 277.617 27.2526L276.322 27.2483C274.882 27.2441 273.442 27.2441 272.003 27.2447L268.884 27.238C266.022 27.2319 263.159 27.2295 260.297 27.2277C257.211 27.2252 254.126 27.2198 251.041 27.2143C243.587 27.2021 236.133 27.1961 228.679 27.1906L218.15 27.1815C202.696 27.167 187.242 27.1577 171.787 27.1535C159.596 27.1487 147.404 27.1335 135.213 27.1135C122.697 27.0934 110.183 27.0831 97.6673 27.0807C90.6394 27.0794 83.6128 27.0746 76.5849 27.0588C70.6 27.0454 64.6157 27.0406 58.6307 27.0466C55.5778 27.0491 52.5249 27.0479 49.472 27.0363C46.6748 27.0254 43.8777 27.026 41.0805 27.0357C40.0707 27.0372 39.061 27.0344 38.0513 27.0272C29.2728 26.9683 22.3446 28.2159 16.4003 35.2304ZM12.1484 188.908C11.3199 204.296 11.3199 204.296 17.6152 217.457C22.9568 222.541 28.5725 224.212 35.8846 224.218L37.1584 224.222C38.567 224.226 39.975 224.225 41.3836 224.224L44.4444 224.23C47.2476 224.235 50.0509 224.236 52.8541 224.236C55.8779 224.237 58.901 224.242 61.9248 224.246C68.536 224.254 75.1478 224.258 81.7589 224.26C85.8882 224.262 90.0168 224.264 94.1455 224.267C105.579 224.275 117.012 224.281 128.446 224.283H132.886L137.344 224.284H139.578C151.521 224.287 163.465 224.298 175.409 224.312C187.673 224.326 199.938 224.334 212.203 224.335C219.088 224.335 225.973 224.339 232.858 224.35C238.721 224.359 244.584 224.362 250.447 224.357C253.438 224.355 256.428 224.356 259.419 224.364C262.158 224.372 264.899 224.371 267.64 224.364C268.628 224.363 269.617 224.364 270.605 224.37C278.411 224.409 286.039 224.085 292.17 218.672C300.472 209.933 298.851 201.198 298.851 188.908H12.1484ZM124.521 236.287L119.966 258.951L118.524 266.108L117.676 270.342C117.486 271.285 117.297 272.228 117.106 273.17C116.818 274.598 116.532 276.026 116.247 277.455L115.988 278.728C115.654 280.412 115.41 281.944 115.41 283.666H195.59C194.645 277.432 194.645 277.432 193.512 271.248L193.274 270.06C193.028 268.827 192.779 267.594 192.529 266.362L192.062 264.034C191.494 261.2 190.922 258.367 190.351 255.534L186.478 236.287H124.521Z" fill="white"/>
<path d="M151.737 84.3028L153.263 84.6533C154.91 85.0329 156.555 85.421 158.2 85.8104C159.353 86.0783 160.506 86.3468 161.66 86.614C164.069 87.1747 166.478 87.739 168.886 88.3069C171.965 89.0316 175.046 89.7503 178.128 90.4632C180.507 91.016 182.885 91.5712 185.263 92.1288C186.399 92.3942 187.534 92.6591 188.671 92.9227C190.26 93.292 191.847 93.6668 193.436 94.0428L194.843 94.3678C202.168 96.1208 202.168 96.1208 204.094 99.0097C204.622 101.379 204.64 103.559 203.377 105.679C202.26 106.976 201.077 108.151 199.842 109.336C199.25 109.931 198.66 110.527 198.072 111.125C196.446 112.768 194.809 114.398 193.16 116.017C194.055 118.102 195.219 119.419 196.843 120.99L198.309 122.429L199.842 123.914C200.844 124.886 201.844 125.86 202.841 126.837L204.186 128.14C205.773 129.894 206.446 131.215 206.751 133.557C206.311 137.221 203.638 139.707 201.108 142.225L199.405 143.924L198.527 144.791C197.634 145.672 196.748 146.559 195.861 147.446C190.723 152.55 190.723 152.55 187.693 152.842C183.512 152.77 181.328 149.834 178.582 146.996C177.87 146.287 177.156 145.581 176.442 144.875C174.511 142.962 172.592 141.036 170.685 139.1C167.462 141.736 164.536 144.597 161.628 147.572C158.697 150.552 158.697 150.552 155.955 150.868C153.228 150.596 151.809 149.602 150.033 147.603C149.243 145.745 149.243 145.745 148.759 143.608L148.471 142.393C148.156 141.045 147.86 139.693 147.566 138.34C147.345 137.374 147.123 136.409 146.9 135.444C146.4 133.266 145.908 131.087 145.421 128.907C144.631 125.413 143.822 121.924 142.993 118.439C142.253 115.301 141.518 112.163 140.786 109.024C140.422 107.463 140.055 105.903 139.687 104.344C139.166 102.132 138.654 99.919 138.146 97.7049L137.665 95.6919C136.903 92.3244 136.382 89.6226 137.277 86.2538C141.074 81.601 146.495 83.0466 151.737 84.3028ZM151.855 97.7948C152.271 101.781 153.073 105.606 153.984 109.507L154.43 111.447C154.899 113.477 155.37 115.507 155.842 117.536L156.799 121.684C157.579 125.06 158.36 128.436 159.144 131.81C159.827 131.23 160.508 130.65 161.188 130.068L162.339 129.089C163.537 128.043 164.655 126.928 165.788 125.812C167.35 124.476 168.545 123.564 170.61 123.307C174.317 123.688 176.723 126.862 179.189 129.381C179.902 130.089 180.617 130.796 181.332 131.502C183.263 133.414 185.177 135.342 187.086 137.277L190.73 134.24C189.859 132.23 188.788 130.966 187.202 129.464L185.827 128.134C184.874 127.223 183.919 126.315 182.961 125.41C180.333 122.859 178.259 120.84 177.367 117.232C177.838 113.592 179.41 111.749 181.999 109.374L182.948 108.466C183.714 107.738 184.486 107.015 185.264 106.299C184.772 104.957 184.772 104.957 183.393 104.661L181.707 104.277L179.803 103.835L177.73 103.371L175.617 102.886C174.139 102.547 172.661 102.211 171.182 101.878C168.912 101.366 166.644 100.847 164.375 100.327L160.077 99.3468L158.008 98.8748L156.098 98.4448L154.411 98.0633C153.099 97.7554 153.099 97.7554 151.855 97.7948ZM161.233 195.097C164.23 197.216 166.416 199.376 167.648 202.879C168.192 207.202 167.843 210.856 165.219 214.42C162.49 217.425 159.592 218.508 155.614 218.9C152.087 218.778 148.937 217.628 146.469 215.063C143.461 211.156 142.776 207.78 143.351 202.879C144.66 199.15 146.551 196.799 150.033 194.982C153.605 193.792 157.688 193.872 161.233 195.097ZM171.293 60.7421C173.499 62.2588 174.174 63.2842 174.976 65.8293C174.892 70.657 171.59 73.3904 168.329 76.5849C165.861 78.8165 164.331 79.2764 161.105 79.1925C159.752 78.9648 159.752 78.9648 157.93 77.7116C156.467 75.5638 156.107 74.2718 156.107 71.6757C157.271 68.8403 158.778 66.9664 160.967 64.8422L162.561 63.2763C165.419 60.6631 167.52 60.1067 171.293 60.7421ZM121.762 60.3503C125.006 61.1728 127.152 63.843 129.381 66.2089L130.418 67.2342C132.434 69.3717 133.025 71.1898 133.025 74.1054C132.105 76.5442 131.564 77.5094 129.381 78.9648C127.453 79.4811 125.848 79.4549 123.914 78.9648C121.615 77.3946 119.743 75.5207 117.84 73.498L116.803 72.4514C114.979 70.4803 114.195 68.898 114.195 66.2089C115.624 61.9223 117.264 60.2701 121.762 60.3503ZM129.381 102.654C131.61 104.187 132.272 105.187 133.025 107.78C133.025 110.959 131.842 112.85 129.782 115.23L128.204 116.777L126.631 118.343C124.597 120.129 123.33 120.795 120.649 121.143C117.804 120.799 116.721 119.94 114.803 117.84C113.994 115.651 114.125 114.477 114.688 112.221C117.381 106.572 122.979 101.576 129.381 102.654ZM115.069 84.1661L116.602 84.1291C119.928 84.1315 121.922 84.595 124.521 86.8612C125.73 89.424 125.861 90.6455 125.129 93.391C123.676 95.7515 122.831 96.1985 120.269 97.1874C118.527 97.4201 116.824 97.4158 115.068 97.3775L113.703 97.3836C110.703 97.3532 108.414 96.942 105.843 95.2892C104.611 93.4414 104.408 91.4612 104.477 89.2909C106.438 84.386 110.388 84.126 115.069 84.1655V84.1661ZM149.537 52.6962C151.515 55.1417 151.014 57.9832 150.983 61.0082L151.026 62.9167C151.017 67.5373 151.017 67.5373 149.177 69.9506C146.847 71.6058 145.615 71.9004 142.744 71.6757C140.622 70.6625 139.812 70.0114 138.492 68.0312C138.196 65.7381 138.239 63.4324 138.226 61.1217L138.165 59.2047C138.133 54.5324 138.133 54.5324 139.956 52.1361C143.248 49.8073 146.282 50.0812 149.537 52.6962ZM68.6386 152.463C70.8678 153.996 71.5293 154.996 72.2831 157.588C72.2831 160.088 71.8525 161.332 70.4609 163.396C68.6702 164.855 66.6384 164.874 64.3678 164.793C62.2947 164.478 61.4401 163.803 60.1347 162.182C59.3451 159.554 59.206 157.47 60.2866 154.93C62.6877 152.101 65.1453 151.875 68.6386 152.463Z" fill="white"/>
</g>
<defs>
<clipPath id="clip0_921177_142">
<rect width="311" height="311" fill="white"/>
</clipPath>
</defs>
</svg>
